<?xml version="1.0" encoding="UTF-8"?>
<svg version="1.1" xmlns="http://www.w3.org/2000/svg" width="256" height="256">
<path d="M0 0 C1.90324539 -0.0099852 1.90324539 -0.0099852 3.84494019 -0.02017212 C6.52632713 -0.03027891 9.20730842 -0.03585752 11.88867188 -0.03466797 C15.2875395 -0.03446573 18.68556201 -0.06168539 22.08423042 -0.09621239 C25.36861961 -0.12410999 28.65300871 -0.12263838 31.9375 -0.125 C33.13899689 -0.13937103 34.34049377 -0.15374207 35.57839966 -0.16854858 C49.27611377 -0.09574101 59.164185 3.60665251 69.6171875 12.3359375 C71.35492722 13.76124556 73.09964147 15.17809691 74.8515625 16.5859375 C75.97643066 17.52179687 75.97643066 17.52179687 77.12402344 18.4765625 C86.13455258 24.58409098 94.31194968 24.90241003 104.94549751 24.85235786 C107.66656031 24.8396311 110.38662307 24.85110481 113.10765076 24.86839294 C117.90333042 24.8949946 122.69876138 24.90069233 127.49450684 24.89929199 C135.17231676 24.89705682 142.84981947 24.91132825 150.52750969 24.95487785 C153.19750769 24.96466564 155.86701515 24.95602689 158.53700256 24.94618225 C160.18556025 24.95233006 161.83411531 24.959243 163.48266602 24.96704102 C164.58248055 24.95546211 164.58248055 24.95546211 165.70451355 24.94364929 C171.61322605 25.00098723 177.18896524 26.15406531 181.890625 29.984375 C182.33664063 30.55414063 182.78265625 31.12390625 183.2421875 31.7109375 C183.93441406 32.55785156 183.93441406 32.55785156 184.640625 33.421875 C187.74114586 38.26026743 188.1327353 42.49949693 187.9921875 48.1484375 C187.98316406 48.84130859 187.97414062 49.53417969 187.96484375 50.24804688 C187.94144907 51.94416145 187.90558391 53.64009621 187.8671875 55.3359375 C188.49173828 55.32022705 189.11628906 55.3045166 189.75976562 55.28833008 C192.62881167 55.22541706 195.49771192 55.18677019 198.3671875 55.1484375 C199.34945312 55.12330078 200.33171875 55.09816406 201.34375 55.07226562 C208.28956978 55.00280743 214.32343511 55.38737132 219.890625 60.01953125 C220.33664063 60.59832031 220.78265625 61.17710938 221.2421875 61.7734375 C221.93441406 62.63775391 221.93441406 62.63775391 222.640625 63.51953125 C226.56259728 69.32754752 226.57382325 74.44911496 225.8671875 81.3359375 C224.67252469 86.33568067 222.99348739 91.13652734 221.2578125 95.96875 C220.77280975 97.3620863 220.28945426 98.75599693 219.80763245 100.1504364 C218.52849805 103.83765252 217.22701703 107.51658182 215.9202919 111.19409561 C214.57713828 114.98528002 213.25382795 118.78337785 211.9284668 122.58081055 C209.85500447 128.51430571 207.76983723 134.44354497 205.67529297 140.36962891 C203.355343 146.93508417 201.07048096 153.51194771 198.80859375 160.09765625 C198.00616214 162.42198455 197.20258036 164.74590907 196.39807129 167.06951904 C195.92502328 168.43846452 195.45402204 169.80811925 194.98522949 171.17852783 C189.46119409 187.28126825 189.46119409 187.28126825 182.9296875 191.1484375 C182.28128906 191.54675781 181.63289062 191.94507813 180.96484375 192.35546875 C176.08539612 194.63617891 170.98829928 194.48240145 165.70005798 194.47637939 C164.88189765 194.47935052 164.06373732 194.48232164 163.22078425 194.4853828 C160.48173313 194.49404835 157.74272584 194.4955762 155.00366211 194.49707031 C153.03899543 194.50169981 151.07432965 194.50672465 149.10966492 194.51211548 C143.77515215 194.5252243 138.44065195 194.53168088 133.10612559 194.53612614 C129.77480001 194.53905786 126.44347786 194.54316275 123.11215401 194.54763031 C112.69293641 194.56129804 102.27372666 194.5709696 91.85450071 194.5748322 C79.8188435 194.57931852 67.78329955 194.59689607 55.74767679 194.6258328 C46.44737576 194.64741915 37.14710667 194.65753477 27.84678084 194.65887332 C22.28996492 194.65992306 16.73325558 194.66586734 11.17646599 194.68369293 C5.95373375 194.7001221 0.73118882 194.70235429 -4.49155998 194.69355392 C-6.4104449 194.69278092 -8.32933968 194.69716079 -10.24819946 194.70701218 C-12.86324746 194.71965302 -15.47762404 194.71389816 -18.09266663 194.70343018 C-19.23735817 194.71551478 -19.23735817 194.71551478 -20.40517479 194.72784352 C-23.424377 194.69948376 -25.82590764 194.47085724 -28.60357571 193.24975491 C-30.9239563 190.34583264 -30.63642471 188.02951599 -30.64074707 184.34736633 C-30.64698703 183.63174237 -30.653227 182.91611841 -30.65965605 182.17880887 C-30.67564577 179.77422827 -30.66295904 177.37065306 -30.65039062 174.96606445 C-30.65580936 173.24462796 -30.66293062 171.52319611 -30.67163086 169.80177307 C-30.68990364 165.1196296 -30.68277865 160.43783777 -30.67011452 155.75568795 C-30.65999914 150.85601101 -30.66937688 145.95636451 -30.67565918 141.0566864 C-30.68294329 132.8223225 -30.67333147 124.58810192 -30.65429688 116.35375977 C-30.63256277 106.84195562 -30.63955121 97.33049489 -30.6616025 87.81869918 C-30.67977789 79.65124781 -30.68230327 71.48389963 -30.67184782 63.31643456 C-30.66562 58.43908739 -30.66475696 53.56190134 -30.67799377 48.68456459 C-30.68958146 44.0937381 -30.68147333 39.50335197 -30.65841675 34.91257286 C-30.65314366 33.23081568 -30.65461939 31.54902122 -30.66346741 29.86727905 C-30.74641289 12.49467425 -30.74641289 12.49467425 -24.79181671 5.83649158 C-17.78541287 -0.71305639 -8.9720644 0.01645349 0 0 Z " fill="#FED45E" transform="translate(30.1328125,30.6640625)"/>
<path d="M0 0 C1.90324539 -0.0099852 1.90324539 -0.0099852 3.84494019 -0.02017212 C6.52632713 -0.03027891 9.20730842 -0.03585752 11.88867188 -0.03466797 C15.2875395 -0.03446573 18.68556201 -0.06168539 22.08423042 -0.09621239 C25.36861961 -0.12410999 28.65300871 -0.12263838 31.9375 -0.125 C33.13899689 -0.13937103 34.34049377 -0.15374207 35.57839966 -0.16854858 C49.27611377 -0.09574101 59.164185 3.60665251 69.6171875 12.3359375 C71.35492722 13.76124556 73.09964147 15.17809691 74.8515625 16.5859375 C75.97643066 17.52179687 75.97643066 17.52179687 77.12402344 18.4765625 C86.13455258 24.58409098 94.31194968 24.90241003 104.94549751 24.85235786 C107.66656031 24.8396311 110.38662307 24.85110481 113.10765076 24.86839294 C117.90333042 24.8949946 122.69876138 24.90069233 127.49450684 24.89929199 C135.17231676 24.89705682 142.84981947 24.91132825 150.52750969 24.95487785 C153.19750769 24.96466564 155.86701515 24.95602689 158.53700256 24.94618225 C160.18556025 24.95233006 161.83411531 24.959243 163.48266602 24.96704102 C164.58248055 24.95546211 164.58248055 24.95546211 165.70451355 24.94364929 C171.61322605 25.00098723 177.18896524 26.15406531 181.890625 29.984375 C182.33664063 30.55414063 182.78265625 31.12390625 183.2421875 31.7109375 C183.93441406 32.55785156 183.93441406 32.55785156 184.640625 33.421875 C187.74114586 38.26026743 188.1327353 42.49949693 187.9921875 48.1484375 C187.98316406 48.84130859 187.97414062 49.53417969 187.96484375 50.24804688 C187.94144907 51.94416145 187.90558391 53.64009621 187.8671875 55.3359375 C188.49173828 55.32022705 189.11628906 55.3045166 189.75976562 55.28833008 C192.62881167 55.22541706 195.49771192 55.18677019 198.3671875 55.1484375 C199.34945312 55.12330078 200.33171875 55.09816406 201.34375 55.07226562 C208.28956978 55.00280743 214.32343511 55.38737132 219.890625 60.01953125 C220.33664063 60.59832031 220.78265625 61.17710938 221.2421875 61.7734375 C221.93441406 62.63775391 221.93441406 62.63775391 222.640625 63.51953125 C226.56259728 69.32754752 226.57382325 74.44911496 225.8671875 81.3359375 C224.67252469 86.33568067 222.99348739 91.13652734 221.2578125 95.96875 C220.77280975 97.3620863 220.28945426 98.75599693 219.80763245 100.1504364 C218.52849805 103.83765252 217.22701703 107.51658182 215.9202919 111.19409561 C214.57713828 114.98528002 213.25382795 118.78337785 211.9284668 122.58081055 C209.85500447 128.51430571 207.76983723 134.44354497 205.67529297 140.36962891 C203.355343 146.93508417 201.07048096 153.51194771 198.80859375 160.09765625 C198.00616214 162.42198455 197.20258036 164.74590907 196.39807129 167.06951904 C195.92502328 168.43846452 195.45402204 169.80811925 194.98522949 171.17852783 C189.46119409 187.28126825 189.46119409 187.28126825 182.9296875 191.1484375 C182.28128906 191.54675781 181.63289062 191.94507813 180.96484375 192.35546875 C176.08539612 194.63617891 170.98829928 194.48240145 165.70005798 194.47637939 C164.88189765 194.47935052 164.06373732 194.48232164 163.22078425 194.4853828 C160.48173313 194.49404835 157.74272584 194.4955762 155.00366211 194.49707031 C153.03899543 194.50169981 151.07432965 194.50672465 149.10966492 194.51211548 C143.77515215 194.5252243 138.44065195 194.53168088 133.10612559 194.53612614 C129.77480001 194.53905786 126.44347786 194.54316275 123.11215401 194.54763031 C112.69293641 194.56129804 102.27372666 194.5709696 91.85450071 194.5748322 C79.8188435 194.57931852 67.78329955 194.59689607 55.74767679 194.6258328 C46.44737576 194.64741915 37.14710667 194.65753477 27.84678084 194.65887332 C22.28996492 194.65992306 16.73325558 194.66586734 11.17646599 194.68369293 C5.95373375 194.7001221 0.73118882 194.70235429 -4.49155998 194.69355392 C-6.4104449 194.69278092 -8.32933968 194.69716079 -10.24819946 194.70701218 C-12.86324746 194.71965302 -15.47762404 194.71389816 -18.09266663 194.70343018 C-19.23735817 194.71551478 -19.23735817 194.71551478 -20.40517479 194.72784352 C-23.424377 194.69948376 -25.82590764 194.47085724 -28.60357571 193.24975491 C-30.9239563 190.34583264 -30.63642471 188.02951599 -30.64074707 184.34736633 C-30.64698703 183.63174237 -30.653227 182.91611841 -30.65965605 182.17880887 C-30.67564577 179.77422827 -30.66295904 177.37065306 -30.65039062 174.96606445 C-30.65580936 173.24462796 -30.66293062 171.52319611 -30.67163086 169.80177307 C-30.68990364 165.1196296 -30.68277865 160.43783777 -30.67011452 155.75568795 C-30.65999914 150.85601101 -30.66937688 145.95636451 -30.67565918 141.0566864 C-30.68294329 132.8223225 -30.67333147 124.58810192 -30.65429688 116.35375977 C-30.63256277 106.84195562 -30.63955121 97.33049489 -30.6616025 87.81869918 C-30.67977789 79.65124781 -30.68230327 71.48389963 -30.67184782 63.31643456 C-30.66562 58.43908739 -30.66475696 53.56190134 -30.67799377 48.68456459 C-30.68958146 44.0937381 -30.68147333 39.50335197 -30.65841675 34.91257286 C-30.65314366 33.23081568 -30.65461939 31.54902122 -30.66346741 29.86727905 C-30.74641289 12.49467425 -30.74641289 12.49467425 -24.79181671 5.83649158 C-17.78541287 -0.71305639 -8.9720644 0.01645349 0 0 Z M17.95841789 65.69752407 C15.96942253 68.68387483 14.64567128 71.6701386 13.4921875 75.05859375 C13.21093018 75.83026382 12.92967285 76.6019339 12.63989258 77.39698792 C11.68932949 80.03476509 10.77587403 82.68345647 9.8671875 85.3359375 C9.52961426 86.30762878 9.19204102 87.27932007 8.84423828 88.28045654 C6.54736512 94.89947208 4.30129005 101.5348453 2.07342529 108.17736816 C0.00583539 114.34132412 -2.0749817 120.50080773 -4.15625 126.66015625 C-4.57329193 127.89496735 -4.99033386 129.12977844 -5.42001343 130.40200806 C-10.07094604 144.14893733 -14.85812067 157.84762475 -19.67578125 171.53686523 C-19.97205414 172.38049118 -20.26832703 173.22411713 -20.57357788 174.0933075 C-21.11991926 175.64835697 -21.66783137 177.20285594 -22.21768188 178.75666809 C-23.33213009 181.92824391 -24.35129808 185.06723623 -25.1328125 188.3359375 C1.08376568 188.45272769 27.30030489 188.54090469 53.5170908 188.59499836 C65.68994911 188.62078235 77.86264581 188.65593687 90.03540039 188.71313477 C100.64490505 188.76296344 111.25429267 188.79522709 121.86391109 188.80637997 C127.48192167 188.81289956 133.0995974 188.82822699 138.71750069 188.86458778 C144.00590584 188.89853848 149.29383836 188.90899218 154.58234215 188.90147591 C156.52255955 188.90285085 158.46279283 188.91278871 160.40291595 188.93196487 C163.05475749 188.95688881 165.70482097 188.95084559 168.35670471 188.93721008 C169.12228638 188.95177429 169.88786804 188.9663385 170.67664915 188.98134404 C176.19348921 188.90480731 179.9549433 187.29772829 183.8671875 183.3359375 C185.32314225 180.81334979 186.2503697 178.29882101 187.1171875 175.5234375 C187.58072917 174.16276042 188.04427083 172.80208333 188.5078125 171.44140625 C188.73082031 170.75933105 188.95382813 170.07725586 189.18359375 169.37451172 C189.8494037 167.38897135 190.57221103 165.4363187 191.3203125 163.48046875 C193.15335906 158.64891279 194.75446043 153.74454346 196.3671875 148.8359375 C198.19088043 143.28522148 200.05359805 137.77016154 202.13476562 132.31054688 C203.47902119 128.68643387 204.66381862 125.0087196 205.8671875 121.3359375 C207.4877659 116.38979719 209.16281751 111.48512237 211.01025391 106.61767578 C212.92253719 101.52588105 214.73952613 96.40047224 216.5546875 91.2734375 C216.97041016 90.12810547 217.38613281 88.98277344 217.81445312 87.80273438 C220.76750211 79.74827317 220.76750211 79.74827317 220.8671875 71.3359375 C219.82263974 68.94057223 219.82263974 68.94057223 218.1796875 67.0234375 C217.43138672 66.03923828 217.43138672 66.03923828 216.66796875 65.03515625 C212.499442 61.10173079 207.71881965 61.04160317 202.2517395 61.05505371 C201.4928656 61.04911147 200.7339917 61.04316922 199.95212162 61.03704691 C197.41351138 61.01972677 194.87509037 61.01666111 192.33642578 61.01367188 C190.51455281 61.00441185 188.6926837 60.99436203 186.87081909 60.98358154 C181.92452337 60.95736859 176.9782819 60.94445106 172.03192759 60.93556023 C168.94111688 60.92969436 165.85032094 60.92148402 162.75951767 60.91255188 C153.08727085 60.88521402 143.41505786 60.86587363 133.74277508 60.8581481 C122.5803023 60.84918292 111.41831888 60.81406436 100.25599492 60.75614691 C91.62484805 60.71291796 82.99383892 60.69273989 74.36258495 60.69006586 C69.20850291 60.68796983 64.05488125 60.67615659 58.90091324 60.64042664 C54.05307826 60.6074713 49.20604993 60.60314989 44.35814285 60.62070465 C42.58079366 60.62224568 40.80340113 60.61355559 39.02616119 60.59378815 C27.4650435 60.04835779 27.4650435 60.04835779 17.95841789 65.69752407 Z " fill="#EFB00B" transform="translate(30.1328125,30.6640625)"/>
<path d="M0 0 C1.90324539 -0.0099852 1.90324539 -0.0099852 3.84494019 -0.02017212 C6.52632713 -0.03027891 9.20730842 -0.03585752 11.88867188 -0.03466797 C15.2875395 -0.03446573 18.68556201 -0.06168539 22.08423042 -0.09621239 C25.36861961 -0.12410999 28.65300871 -0.12263838 31.9375 -0.125 C33.13899689 -0.13937103 34.34049377 -0.15374207 35.57839966 -0.16854858 C49.27611377 -0.09574101 59.164185 3.60665251 69.6171875 12.3359375 C71.35492722 13.76124556 73.09964147 15.17809691 74.8515625 16.5859375 C75.97643066 17.52179687 75.97643066 17.52179687 77.12402344 18.4765625 C86.13455258 24.58409098 94.31194968 24.90241003 104.94549751 24.85235786 C107.66656031 24.8396311 110.38662307 24.85110481 113.10765076 24.86839294 C117.90333042 24.8949946 122.69876138 24.90069233 127.49450684 24.89929199 C135.17231676 24.89705682 142.84981947 24.91132825 150.52750969 24.95487785 C153.19750769 24.96466564 155.86701515 24.95602689 158.53700256 24.94618225 C160.18556025 24.95233006 161.83411531 24.959243 163.48266602 24.96704102 C164.58248055 24.95546211 164.58248055 24.95546211 165.70451355 24.94364929 C171.61322605 25.00098723 177.18896524 26.15406531 181.890625 29.984375 C182.33664063 30.55414063 182.78265625 31.12390625 183.2421875 31.7109375 C183.93441406 32.55785156 183.93441406 32.55785156 184.640625 33.421875 C187.74114586 38.26026743 188.1327353 42.49949693 187.9921875 48.1484375 C187.98316406 48.84130859 187.97414062 49.53417969 187.96484375 50.24804688 C187.94144907 51.94416145 187.90558391 53.64009621 187.8671875 55.3359375 C188.49173828 55.32022705 189.11628906 55.3045166 189.75976562 55.28833008 C192.62881167 55.22541706 195.49771192 55.18677019 198.3671875 55.1484375 C199.34945312 55.12330078 200.33171875 55.09816406 201.34375 55.07226562 C208.28956978 55.00280743 214.32343511 55.38737132 219.890625 60.01953125 C220.33664063 60.59832031 220.78265625 61.17710938 221.2421875 61.7734375 C221.93441406 62.63775391 221.93441406 62.63775391 222.640625 63.51953125 C226.56259728 69.32754752 226.57382325 74.44911496 225.8671875 81.3359375 C224.67252469 86.33568067 222.99348739 91.13652734 221.2578125 95.96875 C220.77280975 97.3620863 220.28945426 98.75599693 219.80763245 100.1504364 C218.52849805 103.83765252 217.22701703 107.51658182 215.9202919 111.19409561 C214.57713828 114.98528002 213.25382795 118.78337785 211.9284668 122.58081055 C209.85500447 128.51430571 207.76983723 134.44354497 205.67529297 140.36962891 C203.355343 146.93508417 201.07048096 153.51194771 198.80859375 160.09765625 C198.00616214 162.42198455 197.20258036 164.74590907 196.39807129 167.06951904 C195.92502328 168.43846452 195.45402204 169.80811925 194.98522949 171.17852783 C189.46119409 187.28126825 189.46119409 187.28126825 182.9296875 191.1484375 C182.28128906 191.54675781 181.63289062 191.94507813 180.96484375 192.35546875 C176.08539612 194.63617891 170.98829928 194.48240145 165.70005798 194.47637939 C164.88189765 194.47935052 164.06373732 194.48232164 163.22078425 194.4853828 C160.48173313 194.49404835 157.74272584 194.4955762 155.00366211 194.49707031 C153.03899543 194.50169981 151.07432965 194.50672465 149.10966492 194.51211548 C143.77515215 194.5252243 138.44065195 194.53168088 133.10612559 194.53612614 C129.77480001 194.53905786 126.44347786 194.54316275 123.11215401 194.54763031 C112.69293641 194.56129804 102.27372666 194.5709696 91.85450071 194.5748322 C79.8188435 194.57931852 67.78329955 194.59689607 55.74767679 194.6258328 C46.44737576 194.64741915 37.14710667 194.65753477 27.84678084 194.65887332 C22.28996492 194.65992306 16.73325558 194.66586734 11.17646599 194.68369293 C5.95373375 194.7001221 0.73118882 194.70235429 -4.49155998 194.69355392 C-6.4104449 194.69278092 -8.32933968 194.69716079 -10.24819946 194.70701218 C-12.86324746 194.71965302 -15.47762404 194.71389816 -18.09266663 194.70343018 C-19.23735817 194.71551478 -19.23735817 194.71551478 -20.40517479 194.72784352 C-23.424377 194.69948376 -25.82590764 194.47085724 -28.60357571 193.24975491 C-30.9239563 190.34583264 -30.63642471 188.02951599 -30.64074707 184.34736633 C-30.64698703 183.63174237 -30.653227 182.91611841 -30.65965605 182.17880887 C-30.67564577 179.77422827 -30.66295904 177.37065306 -30.65039062 174.96606445 C-30.65580936 173.24462796 -30.66293062 171.52319611 -30.67163086 169.80177307 C-30.68990364 165.1196296 -30.68277865 160.43783777 -30.67011452 155.75568795 C-30.65999914 150.85601101 -30.66937688 145.95636451 -30.67565918 141.0566864 C-30.68294329 132.8223225 -30.67333147 124.58810192 -30.65429688 116.35375977 C-30.63256277 106.84195562 -30.63955121 97.33049489 -30.6616025 87.81869918 C-30.67977789 79.65124781 -30.68230327 71.48389963 -30.67184782 63.31643456 C-30.66562 58.43908739 -30.66475696 53.56190134 -30.67799377 48.68456459 C-30.68958146 44.0937381 -30.68147333 39.50335197 -30.65841675 34.91257286 C-30.65314366 33.23081568 -30.65461939 31.54902122 -30.66346741 29.86727905 C-30.74641289 12.49467425 -30.74641289 12.49467425 -24.79181671 5.83649158 C-17.78541287 -0.71305639 -8.9720644 0.01645349 0 0 Z M-22.9453125 12.3984375 C-25.24458891 16.14988849 -25.25654373 19.28040305 -25.25306702 23.58110046 C-25.25444168 24.88941833 -25.25581635 26.19773621 -25.25723267 27.54570007 C-25.25369349 28.99881004 -25.25005868 30.45191978 -25.24633789 31.9050293 C-25.24605587 33.43254596 -25.24621404 34.96006276 -25.2467804 36.48757935 C-25.24706779 40.63810761 -25.24118037 44.78860708 -25.23420644 48.93912864 C-25.22796331 53.27532032 -25.22736834 57.61151264 -25.22618103 61.94770813 C-25.22307055 70.16057742 -25.21486097 78.37343342 -25.20483154 86.58629686 C-25.19366163 95.93564259 -25.18815773 105.28498895 -25.18313611 114.63433969 C-25.17267813 133.86821316 -25.15508415 153.10207426 -25.1328125 172.3359375 C-23.01065742 169.15270488 -22.04338008 166.39279968 -20.85546875 162.76171875 C-20.53744545 161.79772408 -20.53744545 161.79772408 -20.21299744 160.81425476 C-19.53615163 158.7603612 -18.86541885 156.70453872 -18.1953125 154.6484375 C-17.52778544 152.61053231 -16.85892733 150.57307859 -16.18833923 148.53617859 C-15.57615965 146.67512082 -14.96777997 144.81281436 -14.35961914 142.95043945 C-13.50774105 140.44057774 -12.62949861 137.96807888 -11.69018555 135.4921875 C-9.94936232 130.89800564 -8.37505816 126.25237265 -6.8046875 121.59765625 C-6.16282614 119.70505584 -5.52089676 117.81247848 -4.87890625 115.91992188 C-3.88656831 112.98982654 -2.89498953 110.05947918 -1.90478516 107.12866211 C1.52246618 96.99078719 4.97683324 86.86221605 8.6015625 76.79296875 C9.007164 75.64038826 9.007164 75.64038826 9.42095947 74.46452332 C11.85180876 67.80175255 14.85196461 62.39621295 20.8671875 58.3359375 C24.34206697 57.15419986 27.69777633 57.19798978 31.34649658 57.17771912 C32.31942504 57.17031215 32.31942504 57.17031215 33.31200862 57.16275555 C35.48306832 57.14741063 37.65409851 57.13902812 39.82519531 57.13061523 C41.3824184 57.12103434 42.9396389 57.11102414 44.49685669 57.10061646 C48.72374118 57.07358418 52.95063681 57.05256553 57.17755985 57.03261447 C61.59518018 57.01074458 66.01276622 56.98336079 70.43035889 56.95655823 C78.79545839 56.90664492 87.16057694 56.86170102 95.52571368 56.81853586 C105.04922707 56.76915187 114.57270605 56.71423804 124.09618616 56.65885627 C143.68648788 56.54505712 163.27682246 56.43821356 182.8671875 56.3359375 C182.94884246 54.12822945 183.00667238 51.91963325 183.0546875 49.7109375 C183.08949219 48.48117188 183.12429687 47.25140625 183.16015625 45.984375 C182.72469542 40.5614361 180.88619314 37.42011319 177.20001221 33.4981842 C173.20000186 30.90308546 170.15625626 30.64917167 165.54199219 30.73999023 C164.32119209 30.73390244 164.32119209 30.73390244 163.07572937 30.72769165 C161.3160882 30.72218989 159.55638142 30.72813935 157.79680634 30.74435234 C155.00390309 30.76985226 152.21247025 30.76494731 149.41949463 30.75245667 C143.48522976 30.73173415 137.55142213 30.75135618 131.6171875 30.7734375 C124.75056266 30.79459942 117.88441469 30.79897841 111.01779938 30.77293587 C108.28013589 30.7695966 105.54340125 30.79072635 102.80584717 30.81333923 C89.43002659 30.83699151 80.86345933 28.54991492 70.3671875 19.9609375 C57.9362255 9.73598505 57.9362255 9.73598505 42.74682617 6.15893555 C41.48509079 6.14610031 40.22335541 6.13326508 38.92338562 6.12004089 C37.54397983 6.111873 36.16456959 6.10442936 34.78515625 6.09765625 C34.08931238 6.09358072 33.39346851 6.0895052 32.67653847 6.08530617 C28.99326501 6.06446422 25.31002861 6.05015457 21.62670898 6.04077148 C17.83028481 6.02971207 14.03444757 5.99531312 10.23823071 5.95559978 C7.3119043 5.9294049 4.38571716 5.92107715 1.45928383 5.91749001 C0.06028594 5.91263124 -1.33870602 5.90103735 -2.73758888 5.88245201 C-4.69967051 5.85800479 -6.66203885 5.86145085 -8.62426758 5.8659668 C-9.73884842 5.86010056 -10.85342926 5.85423431 -12.00178528 5.84819031 C-16.69423176 6.57917328 -19.84236373 8.86749579 -22.9453125 12.3984375 Z M17.95841789 65.69752407 C15.96942253 68.68387483 14.64567128 71.6701386 13.4921875 75.05859375 C13.21093018 75.83026382 12.92967285 76.6019339 12.63989258 77.39698792 C11.68932949 80.03476509 10.77587403 82.68345647 9.8671875 85.3359375 C9.52961426 86.30762878 9.19204102 87.27932007 8.84423828 88.28045654 C6.54736512 94.89947208 4.30129005 101.5348453 2.07342529 108.17736816 C0.00583539 114.34132412 -2.0749817 120.50080773 -4.15625 126.66015625 C-4.57329193 127.89496735 -4.99033386 129.12977844 -5.42001343 130.40200806 C-10.07094604 144.14893733 -14.85812067 157.84762475 -19.67578125 171.53686523 C-19.97205414 172.38049118 -20.26832703 173.22411713 -20.57357788 174.0933075 C-21.11991926 175.64835697 -21.66783137 177.20285594 -22.21768188 178.75666809 C-23.33213009 181.92824391 -24.35129808 185.06723623 -25.1328125 188.3359375 C1.08376568 188.45272769 27.30030489 188.54090469 53.5170908 188.59499836 C65.68994911 188.62078235 77.86264581 188.65593687 90.03540039 188.71313477 C100.64490505 188.76296344 111.25429267 188.79522709 121.86391109 188.80637997 C127.48192167 188.81289956 133.0995974 188.82822699 138.71750069 188.86458778 C144.00590584 188.89853848 149.29383836 188.90899218 154.58234215 188.90147591 C156.52255955 188.90285085 158.46279283 188.91278871 160.40291595 188.93196487 C163.05475749 188.95688881 165.70482097 188.95084559 168.35670471 188.93721008 C169.12228638 188.95177429 169.88786804 188.9663385 170.67664915 188.98134404 C176.19348921 188.90480731 179.9549433 187.29772829 183.8671875 183.3359375 C185.32314225 180.81334979 186.2503697 178.29882101 187.1171875 175.5234375 C187.58072917 174.16276042 188.04427083 172.80208333 188.5078125 171.44140625 C188.73082031 170.75933105 188.95382813 170.07725586 189.18359375 169.37451172 C189.8494037 167.38897135 190.57221103 165.4363187 191.3203125 163.48046875 C193.15335906 158.64891279 194.75446043 153.74454346 196.3671875 148.8359375 C198.19088043 143.28522148 200.05359805 137.77016154 202.13476562 132.31054688 C203.47902119 128.68643387 204.66381862 125.0087196 205.8671875 121.3359375 C207.4877659 116.38979719 209.16281751 111.48512237 211.01025391 106.61767578 C212.92253719 101.52588105 214.73952613 96.40047224 216.5546875 91.2734375 C216.97041016 90.12810547 217.38613281 88.98277344 217.81445312 87.80273438 C220.76750211 79.74827317 220.76750211 79.74827317 220.8671875 71.3359375 C219.82263974 68.94057223 219.82263974 68.94057223 218.1796875 67.0234375 C217.43138672 66.03923828 217.43138672 66.03923828 216.66796875 65.03515625 C212.499442 61.10173079 207.71881965 61.04160317 202.2517395 61.05505371 C201.4928656 61.04911147 200.7339917 61.04316922 199.95212162 61.03704691 C197.41351138 61.01972677 194.87509037 61.01666111 192.33642578 61.01367188 C190.51455281 61.00441185 188.6926837 60.99436203 186.87081909 60.98358154 C181.92452337 60.95736859 176.9782819 60.94445106 172.03192759 60.93556023 C168.94111688 60.92969436 165.85032094 60.92148402 162.75951767 60.91255188 C153.08727085 60.88521402 143.41505786 60.86587363 133.74277508 60.8581481 C122.5803023 60.84918292 111.41831888 60.81406436 100.25599492 60.75614691 C91.62484805 60.71291796 82.99383892 60.69273989 74.36258495 60.69006586 C69.20850291 60.68796983 64.05488125 60.67615659 58.90091324 60.64042664 C54.05307826 60.6074713 49.20604993 60.60314989 44.35814285 60.62070465 C42.58079366 60.62224568 40.80340113 60.61355559 39.02616119 60.59378815 C27.4650435 60.04835779 27.4650435 60.04835779 17.95841789 65.69752407 Z " fill="#070501" transform="translate(30.1328125,30.6640625)"/>
</svg>
